<svg viewBox="0 0 95.858 96" xml:space="preserve" width="95.858" height="96" xmlns="http://www.w3.org/2000/svg"><path fill="#ed7778" d="M76 23.6c-18.7 0-33.8 15.1-33.8 33.8S57.3 91.3 76 91.3s33.8-15.1 33.8-33.8S94.7 23.6 76 23.6" style="stroke-width:.705209" transform="translate(-59.84 -33.465)scale(1.41802)"/><g style="stroke-width:.705209" fill="#fff"><path d="M67.1 43.4c-2.6-1.4-5.5-2.5-8.5-3.2-.6 1.3-.9 2.6-.9 4.1 0 2.2.7 4.2 1.9 5.8 1.9-2.8 4.4-5.2 7.5-6.7m25.3 6.7c1.2-1.6 1.9-3.6 1.9-5.8 0-1.5-.3-2.9-.9-4.1-3 .6-5.9 1.7-8.5 3.2 3 1.5 5.6 3.9 7.5 6.7" style="stroke-width:.705209" transform="translate(-59.84 -33.465)scale(1.41802)"/><g style="stroke-width:.705209"><path d="M80.5 54.7c-.6 0-1.1.5-1.1 1.1 0 .2.1.4.2.6.4.6 1 1 1.7 1.2.2-.4.3-.9.3-1.4v-.5c-.1-.6-.5-1-1.1-1" style="stroke-width:.705209" transform="translate(-59.84 -33.465)scale(1.41802)"/><path d="M75.3 42.5c-9.9.4-17.6 8.8-17.6 18.7v10.3c0 1.8 1.5 3.3 3.3 3.3s3.3-1.5 3.3-3.3v-2.7h23.2v2.7c0 1.8 1.5 3.3 3.3 3.3s3.3-1.5 3.3-3.3V60.7c.1-10.3-8.4-18.6-18.8-18.2m10.4 14.4c-.6 1-1.5 1.7-2.6 2.1-.7 1.4-2.2 2.4-3.9 2.4h-.5c-.6 0-1.1-.5-1.1-1.1s.5-1.1 1.1-1.1c.5 0 1-.2 1.4-.4-.6-.3-1.2-.7-1.6-1.3-.4-.5-.6-1-.6-1.7 0-1.4 1.2-2.6 2.6-2.6.9 0 1.6.4 2.1 1.1.6.8 1 1.7 1 2.8v.4c.5-.2.9-.6 1.2-1 .2-.3.5-.3.8-.2.2-.1.3.3.1.6" style="stroke-width:.705209" transform="translate(-59.84 -33.465)scale(1.41802)"/></g></g></svg>