<svg width="86.737" height="96" viewBox="0 0 22.949 25.4" xmlns="http://www.w3.org/2000/svg"><g stroke-width=".121"><path d="M6.35.53 3.83 4.894 6.35 6.35l2.52-1.455.11-3.1C7.829 1.131 6.64.53 6.35.53" fill="#df6277" style="stroke-width:.121266" transform="translate(-2.38 -1.154)scale(2.1818)"/><path d="M8.98 1.795 6.35 6.35l2.52 1.455 2.521-4.365c-.145-.252-1.26-.98-2.411-1.645" fill="#fb9168" style="stroke-width:.121266" transform="translate(-2.38 -1.154)scale(2.1818)"/><path d="M11.391 3.44 6.35 6.35l2.52 1.455 2.74-1.455c0-1.33-.073-2.658-.219-2.91" fill="#f3db6c" style="stroke-width:.121266" transform="translate(-2.38 -1.154)scale(2.1818)"/><path d="M6.35 6.35v2.91h5.041c.146-.252.218-1.58.218-2.91Z" fill="#7ab392" style="stroke-width:.121266" transform="translate(-2.38 -1.154)scale(2.1818)"/><path d="M6.35 6.35v2.91l2.63 1.645c1.15-.665 2.265-1.393 2.411-1.645z" fill="#4b7cbc" style="stroke-width:.121266" transform="translate(-2.38 -1.154)scale(2.1818)"/><path d="M6.35 6.35 3.83 7.805l2.52 4.366c.291 0 1.479-.602 2.63-1.266z" fill="#6f488c" style="stroke-width:.121266" transform="translate(-2.38 -1.154)scale(2.1818)"/><path d="M3.83 4.895 1.308 9.26c.29.505 4.459 2.91 5.04 2.91V6.35Z" fill="#4d3f33" style="stroke-width:.121266" transform="translate(-2.38 -1.154)scale(2.1818)"/><path d="M1.309 3.44c-.291.504-.291 5.316 0 5.82L6.35 6.35V3.44Z" fill="#7a573b" style="stroke-width:.121266" transform="translate(-2.38 -1.154)scale(2.1818)"/><path d="M6.35.53c-.582 0-4.75 2.405-5.041 2.91L6.35 6.35z" fill="#99cd61" style="stroke-width:.121266" transform="translate(-2.38 -1.154)scale(2.1818)"/></g><g style="stroke-width:.458336"><path transform="translate(-.347 .878)scale(1.86191)" d="M6.35 2.94c-.341 0-2.783 1.41-2.953 1.705L6.35 9.76l2.954-5.115c-.17-.296-2.613-1.706-2.954-1.706" fill="#fff" style="stroke-width:.458336"/><path d="m5.977 9.526 5.499 9.523c.634 0 5.182-2.624 5.499-3.174s.319-5.798 0-6.349L11.476 12.7z" fill="#dfdfdf"/></g><path d="M5.976 9.525c-.317.55-.317 5.8 0 6.35.318.55 4.864 3.175 5.5 3.175V12.7z" fill="#d6d2d2"/></svg>