<svg width="96" height="96" viewBox="0 0 96 96" xmlns="http://www.w3.org/2000/svg"><path style="fill:#fff;fill-opacity:1;stroke-width:3.00001" d="M90.677 47.593a41.498 41.444 0 0 1-41.498 41.444A41.498 41.444 0 0 1 7.682 47.593a41.498 41.444 0 0 1 82.995 0"/><path style="display:inline;fill:#9148b4;stroke:none" d="M44.438 2.517c-8.83 1.163-16.75 3.74-24 9.086-4.466 3.294-8.072 7.416-11.125 12.022-2.699 4.07-4.643 8.769-5.82 13.5-5.73 23.023 7.487 47.978 30.445 55.12 6.477 2.015 13.344 2.662 20.063 1.826a46.1 46.1 0 0 0 18.75-6.687c21.464-13.469 27.862-43.208 13.873-64.321-2.806-4.237-6.269-8.001-10.311-11.085-4.611-3.517-9.796-6.197-15.375-7.799-5.164-1.483-11.13-2.37-16.5-1.663m-.188 4.422c-2.299 8.885-.407 20.083 6.017 26.81 2.487 2.604 5.563 4.038 8.608 5.815v.188c-2.742-.772-5.423-1.491-7.875-3.012-7.247-4.496-9.799-12.68-9.204-20.8.192-2.621.537-7.024 2.454-9m-5.625 6.938c-.008 3.088-.108 5.949.652 9 2.029 8.154 8.134 14.11 15.848 17.098 6.406 2.481 13.618 2.296 18.749 7.464 7.897 7.954 4.154 21.224-.518 29.813-1.586 2.915-3.672 6.128-6.418 8.063 1.708-4.06 7.326-9.37 3.763-14.055-3.004-3.95-9.965-3.13-14.076-1.818-1.217.389-4.658 1.374-4.467 3.123.179 1.645 3.983 2.647 5.217 3.378 3.127 1.853 6.104 4.864 7.125 8.435-3.14-2.186-5.86-4.389-9.938-4.288-7.584.187-15.668 5.979-23.063 2.177C26.5 79.696 20.303 70.06 25.18 64.91c3.432-3.626 9.698-4.16 14.383-4.16v-.188c-10.342-.028-17.485-10.67-18.75-20.063 1.5.699 2.772 2.176 4.125 3.159 3.948 2.867 10.93 6.765 15.938 4.341-10.277-5.119-7.797-17.842-5.067-26.625.744-2.394 1.425-5.402 2.817-7.5M21.938 33.749c2.515 7.435 9.135 11.276 16.313 13.313v.188c-5.797-.733-11.631-2.672-14.732-8.063-.741-1.287-2.115-3.943-1.58-5.438m10.125 26.438v.188c-4.08 1.116-9.267 4.083-9.938 8.625-2.238-5.334 5.974-8.78 9.938-8.813"/><path style="display:inline;fill:#8643a7;fill-opacity:1;stroke:none" d="M92.158 61.406 75.926 49.712l-.16.108c5.263 8.032 1.824 19.647-2.411 27.43-1.586 2.915-3.672 6.128-6.418 8.063 1.708-4.06 7.326-9.37 3.763-14.055-3.004-3.95-9.965-3.13-14.076-1.818-1.217.389-4.658 1.375-4.467 3.123.179 1.645 3.983 2.647 5.217 3.378 3.127 1.853 6.104 4.864 7.125 8.434-3.14-2.186-5.86-4.389-9.938-4.288-7.584.187-15.668 5.979-23.063 2.177a11 11 0 0 1-1.814-1.204l17.531 13.366c.968-.031 4.092-.123 6.783-.355 5.976-.516 13.652-3.414 18.75-6.687 8.668-5.565 15.997-14.505 19.408-25.978"/></svg>