<svg xmlns="http://www.w3.org/2000/svg" viewBox="75.636 61.091 128 96" width="128" height="96"><path fill="#4285f4" d="M84.364 157.091h20.364v-49.455L75.636 85.818v62.545a8.725 8.725 0 0 0 8.727 8.727"/><path fill="#34a853" d="M174.545 157.091h20.364a8.725 8.725 0 0 0 8.727-8.727V85.818l-29.091 21.818"/><path fill="#fbbc04" d="M174.545 69.818v37.818l29.091-21.818V74.182c0-10.793-12.32-16.945-20.945-10.473"/><path fill="#ea4335" d="M104.727 107.636V69.818L139.636 96l34.909-26.182v37.818l-34.909 26.182"/><path fill="#c5221f" d="M75.636 74.182v11.636l29.091 21.818V69.818l-8.145-6.109c-8.64-6.473-20.946-.32-20.946 10.473"/></svg>