<svg width="429" height="96" fill="none" xmlns="http://www.w3.org/2000/svg"><path d="M1.928 85.861c1.038-1.491 2.748-2.46 5.047-2.83a607.7 607.7 0 0 1 195.456-.3c1.78.3 2.896.823 3.49 1.416.519.524.741 1.195.593 2.163-.148.82-.52 1.343-1.112 1.64-.742.37-1.933.523-3.712.297a599.4 599.4 0 0 0-192.342 7.6c-.593.079-1.187.153-1.706.153h-.515a6.5 6.5 0 0 1-3.337-1.046c-1.487-.969-2.455-2.534-2.826-4.318-.222-1.788.074-3.502.964-4.77Z" fill="#6573ff" style="stroke-width:1"/><path d="M47.122 35.183c-1.932-1.495-4.379-2.834-7.423-4.029-2.967-1.195-6.53-2.159-10.609-3.057-3.49-.82-6.233-1.565-8.24-2.381-2.002-.746-3.41-1.64-4.3-2.612-.895-.968-1.265-2.159-1.265-3.576 0-2.608 1.112-4.622 3.34-6.114q3.337-2.232 8.904-2.233c3.337 0 6.53.52 9.722 1.64 3.19 1.116 6.234 2.83 9.2 5.067l4.602-10.361a22.4 22.4 0 0 0-6.304-4.025c-2.525-1.117-5.273-1.936-8.24-2.608A46 46 0 0 0 27.38 0c-5.19 0-9.722.894-13.653 2.682-3.856 1.788-6.9 4.252-9.125 7.305a17.93 17.93 0 0 0-3.267 10.435c0 2.682.445 5.067 1.26 7.156a13.66 13.66 0 0 0 4.083 5.364c1.854 1.566 4.305 2.909 7.272 4.025 2.966 1.195 6.604 2.163 10.835 3.057 3.337.746 6.085 1.491 8.087 2.237 2.006.742 3.49 1.566 4.38 2.608.89.968 1.408 2.163 1.408 3.576q0 3.584-3.337 5.59-3.337 2.016-9.574 2.015c-3.86 0-7.498-.523-10.984-1.64-3.485-1.12-6.826-2.834-10.093-5.067L0 59.696a29.7 29.7 0 0 0 7.127 4.1 47 47 0 0 0 8.829 2.607c3.115.598 6.382.898 9.645.898 5.714 0 10.538-.824 14.617-2.463 4.008-1.64 7.127-3.947 9.277-6.93 2.151-2.983 3.19-6.559 3.19-10.658 0-2.608-.446-4.845-1.41-6.855-.816-1.936-2.224-3.729-4.153-5.22zM73.094 4.248l-.074.024v-.024zm-.074.024V19.68h11.869v10.432h-11.87V48.37c0 1.788.371 3.28 1.039 4.4.667 1.116 1.557 1.936 2.67 2.385a9.5 9.5 0 0 0 3.563.668c.742 0 1.483-.075 2.15-.149a78 78 0 0 1 2.448-.445v10.658c-1.26.52-2.596.894-3.856 1.043a25 25 0 0 1-4.157.296q-8.572 0-13.134-4.919c-3.04-3.28-4.528-7.898-4.528-13.71V8.791l13.801-4.52Zm47.485 17.044c2.076 1.343 3.637 2.983 4.75 4.993h.074V19.75h13.653v46.806h-13.653v-6.93c-1.112 2.01-2.674 3.724-4.75 4.993-2.892 1.788-6.233 2.682-9.941 2.682-4.083 0-7.647-1.042-10.761-2.978a19.7 19.7 0 0 1-7.272-8.425c-1.71-3.65-2.595-7.898-2.595-12.743 0-4.919.811-9.166 2.595-12.895 1.78-3.728 4.153-6.559 7.272-8.647 3.114-2.01 6.674-3.053 10.682-3.053 3.79 0 7.054.894 9.946 2.756m-5.933 35.253c3.411 0 6.007-1.194 7.86-3.502 1.855-2.307 2.823-5.664 2.823-9.986 0-4.474-.964-7.828-2.822-10.213-1.854-2.385-4.524-3.576-7.865-3.576-3.337 0-6.01 1.195-7.939 3.65-1.928 2.46-2.896 5.813-2.896 10.213 0 4.326.968 7.675 2.822 9.987 1.854 2.307 4.528 3.427 8.013 3.427zm85.556-52.321-.074.024v-.024zm-.074.024V19.68h11.873v10.432h-11.869V48.37c0 1.788.371 3.28 1.038 4.4.668 1.116 1.558 1.936 2.67 2.385a9.5 9.5 0 0 0 3.564.668c.741 0 1.483-.075 2.15-.149a76 76 0 0 1 2.452-.445v10.658c-1.265.52-2.596.894-3.86 1.043a25 25 0 0 1-4.158.296q-8.572 0-13.134-4.919c-3.04-3.28-4.527-7.898-4.527-13.71V8.791Zm47.42 14.288c4.004 0 7.567.968 10.682 3.053 3.119 2.088 5.492 4.919 7.271 8.569 1.78 3.728 2.674 8.054 2.674 12.895 0 4.849-.894 9.096-2.674 12.747-1.78 3.654-4.152 6.484-7.271 8.425-3.115 2.01-6.678 2.978-10.687 2.978-3.782 0-7.123-.894-9.941-2.682a13.26 13.26 0 0 1-4.602-4.919v27.578h-13.875v-54.04c0-2.236-.075-4.474-.149-6.71a68 68 0 0 0-.593-6.708h13.06l.89 7.976a13.35 13.35 0 0 1 5.269-6.41c2.818-1.862 6.16-2.76 9.941-2.76zm-3.935 38.01c3.41 0 6.01-1.117 7.864-3.428 1.854-2.308 2.744-5.665 2.818-10.135 0-4.326-.964-7.754-2.818-10.213-1.853-2.386-4.527-3.65-7.868-3.65q-5.227.002-8.013 3.576c-1.854 2.385-2.744 5.813-2.744 10.213 0 4.396.89 7.827 2.744 10.134 1.853 2.308 4.531 3.502 8.017 3.502m64.409-30.26a13.84 13.84 0 0 0-4.75-4.994c-2.892-1.862-6.16-2.76-9.941-2.76-4.009 0-7.573 1.046-10.687 3.057-3.119 2.088-5.492 4.919-7.272 8.647-1.784 3.729-2.595 7.976-2.595 12.895 0 4.845.886 9.093 2.595 12.743a19.7 19.7 0 0 0 7.272 8.425c3.114 1.936 6.674 2.978 10.76 2.978 3.709 0 7.046-.894 9.942-2.678a13.3 13.3 0 0 0 4.75-4.997v6.93h13.653V19.759h-13.727v6.554ZM305.2 53.066c-1.854 2.308-4.45 3.502-7.865 3.502-3.485 0-6.159-1.116-8.013-3.427-1.854-2.308-2.822-5.665-2.822-9.987 0-4.326.968-7.753 2.896-10.213s4.602-3.65 7.94-3.65c3.336 0 6.014 1.195 7.868 3.576 1.854 2.39 2.818 5.739 2.818 10.213-.074 4.322-.964 7.675-2.822 9.986m53.949-31.677c2.076 1.343 3.708 2.983 4.82 4.993V19.75h13.802v44.573c0 7.527-2.147 13.191-6.378 17.068-4.231 3.873-10.538 5.81-18.774 5.81-7.346 0-13.801-1.414-19.293-4.323l2.076-10.357a38.4 38.4 0 0 0 8.384 3.131 36.4 36.4 0 0 0 8.388 1.043c4.009 0 6.975-.894 8.903-2.76 2.006-1.863 2.966-4.697 2.966-8.496v-8.198c-.663.968-1.405 1.936-2.299 2.834-1.557 1.566-3.41 2.756-5.561 3.725a17.3 17.3 0 0 1-7.053 1.417c-4.079 0-7.643-.968-10.757-2.909-3.119-1.936-5.566-4.618-7.35-8.124q-2.67-5.253-2.67-12.298c0-4.696.89-8.717 2.67-12.223 1.784-3.428 4.231-6.184 7.35-8.125 3.114-2.01 6.752-2.978 10.757-2.978 3.786 0 7.127.968 10.019 2.83m-6.01 33.165c3.336 0 6.01-1.113 7.938-3.35 1.932-2.237 2.896-5.368 2.966-9.319 0-3.872-.885-7.003-2.818-9.24-1.928-2.308-4.601-3.428-8.013-3.428-3.415 0-6.159 1.116-8.087 3.353-2.006 2.237-2.966 5.29-2.966 9.241s.96 7.082 2.966 9.32c2.002 2.306 4.676 3.427 8.013 3.427zM167.482 21.843c-1.932 1.488-3.337 3.502-4.305 5.962l-.964-8.125h-13.06c.296 2.237.519 4.47.593 6.707s.148 4.475.148 6.708v33.39h13.876V42.04c0-2.307.445-4.322 1.335-6.036s2.154-2.983 3.786-3.95c1.631-.895 3.708-1.418 6.159-1.418 1.483 0 2.966.227 4.45.672v-12.45a12.7 12.7 0 0 0-2.522-.223c-3.56 0-6.752 1.042-9.496 3.205zm258.382 7.601c1.706 3.576 2.596 7.754 2.596 12.599l-.149 4.618h-30.35q.666 4.139 2.674 6.485c2.076 2.307 5.19 3.502 9.422 3.502 2.447 0 4.898-.371 7.271-1.195a24.2 24.2 0 0 0 6.604-3.424l3.638 9.393c-2.229 1.784-4.973 3.131-8.236 4.17a33.6 33.6 0 0 1-9.797 1.491c-5.19 0-9.644-1.042-13.43-2.979-3.786-2.014-6.678-4.77-8.685-8.425-2.002-3.576-3.04-7.897-3.04-12.895 0-4.845 1.038-9.092 2.966-12.742a21.44 21.44 0 0 1 8.017-8.648c3.411-2.01 7.346-3.057 11.874-3.057 4.3 0 8.087.973 11.276 2.909a18.8 18.8 0 0 1 7.35 8.198m-25.679 2.163c-1.038 1.492-1.78 3.28-2.224 5.59h18.551c-.296-2.537-.964-4.547-2.15-6.039-1.558-2.01-3.786-2.983-6.757-2.983-3.188 0-5.636 1.121-7.415 3.432z" fill="#202945" style="stroke-width:1"/></svg>