<svg width="96" height="84.672" viewBox="0 0 25.4 22.403" xml:space="preserve" xmlns="http://www.w3.org/2000/svg"><path style="fill:#fff;stroke:none" d="M7.417 13.665v.051c-.744.06-1.504.348-2.185.639-1.005.43-2.064 1.2-2.362 2.307-.255.945.079 1.908.602 2.693 1.142 1.711 3.598 3.744 5.774 2.727.924-.433 1.635-1.344 2.117-2.22.526-.954 1.04-2.031 1.286-3.098h.102c.246 1.062.747 2.156 1.284 3.099.598 1.049 1.46 2.102 2.678 2.414 2.097.536 4.342-1.491 5.344-3.125.4-.655.644-1.41.534-2.185-.184-1.285-1.32-2.108-2.423-2.606-.673-.303-1.444-.586-2.185-.645v-.05c.805.063 1.638.11 2.439-.032.61-.108 1.22-.268 1.778-.546 2.899-1.446 2.805-4.854 3.001-7.652.103-1.46.764-4.05-.614-5.104-.54-.414-1.255-.358-1.88-.23-1.51.308-2.776 1.323-3.911 2.307-1.073.93-2.036 2.055-2.902 3.179-.819 1.064-1.609 2.15-2.3 3.302-.297.494-.683 1.017-.843 1.575h-.102c-.174-.606-.596-1.197-.93-1.727a41 41 0 0 0-2.213-3.15C8.64 4.464 7.677 3.34 6.604 2.409 5.485 1.44 4.26.485 2.794.121 2.153-.04 1.37-.095.813.33-.565 1.387.096 3.977.199 5.437c.2 2.862.118 6.325 3.154 7.712.502.23 1.03.39 1.575.479.824.135 1.66.104 2.489.038"/></svg>