<svg width="466.667" height="466.667" viewBox="32 32 402.667 402.667" xmlns="http://www.w3.org/2000/svg"><g clip-path="url(#a)" transform="matrix(1.33333 0 0 -1.33333 0 466.667)"><path d="M0 0a57 57 0 0 0 8.64.673q4.377 0 8.753-.673l-1.122-54.87q-3.93-.672-7.519-.673-3.816 0-7.63.673zm.449-80.678a51 51 0 0 0-.674 8.192q0 4.038.674 8.303 4.151.673 8.191.673 4.039 0 8.303-.673.674-4.266.673-8.191.001-4.154-.673-8.304-4.264-.673-8.191-.673a52 52 0 0 0-8.303.673m-65.866 58.012q4.039.673 7.967.673 3.926 0 7.967-.673v-30.745q0-4.602.729-7.574.728-2.975 2.244-4.713a8.26 8.26 0 0 1 3.759-2.468q2.244-.731 5.273-.73 4.152 0 6.957.786v45.444q4.04.673 7.855.673 3.927 0 7.967-.673v-55.768q-3.591-1.235-9.482-2.412-5.89-1.178-12.286-1.178-5.723 0-10.997.897t-9.257 3.815-6.34 8.529q-2.356 5.608-2.356 14.923zm-39.384-32.765q-6.284 1.795-9.818 5.329-3.535 3.536-3.534 10.605-.001 8.526 6.115 13.352 6.115 4.825 16.662 4.826 4.376-.001 8.641-.786a55 55 0 0 0 8.639-2.356q-.225-2.919-1.121-6.06-.898-3.142-2.133-5.498-2.694 1.121-5.946 1.964-3.256.842-6.846.842-3.815 0-5.947-1.179-2.132-1.178-2.131-3.759 0-2.469 1.514-3.478t4.32-1.908l6.397-1.907q3.14-.9 5.666-2.189 2.525-1.29 4.32-3.197 1.794-1.91 2.806-4.713 1.008-2.805 1.009-6.845 0-4.152-1.74-7.742-1.74-3.593-5.049-6.227-3.31-2.638-8.022-4.153-4.714-1.514-10.66-1.514-2.693 0-4.938.169a39 39 0 0 0-4.32.56 51 51 0 0 0-4.096.954 50 50 0 0 0-4.375 1.458 32 32 0 0 0 1.066 6.116 38.5 38.5 0 0 0 2.188 6.003q3.702-1.46 7.013-2.188a32 32 0 0 1 6.901-.73q1.57 0 3.422.282 1.851.278 3.422 1.009 1.57.729 2.637 1.908 1.066 1.176 1.066 3.086 0 2.692-1.627 3.871-1.627 1.177-4.545 2.076zm-51.727-14.474q6.283 0 9.033 4.656 2.748 4.656 2.749 13.409t-2.749 13.409-9.033 4.657q-6.172-.001-8.92-4.657-2.75-4.657-2.749-13.409-.001-8.753 2.749-13.409 2.748-4.657 8.92-4.656m0-12.119q-7.07.001-12.286 2.3-5.22 2.299-8.64 6.396-3.425 4.094-5.162 9.594-1.74 5.497-1.739 11.894 0 6.395 1.739 12.006 1.737 5.61 5.162 9.706 3.42 4.095 8.64 6.452 5.217 2.357 12.286 2.357t12.343-2.357 8.752-6.452q3.478-4.096 5.162-9.706t1.683-12.006q0-6.397-1.683-11.894-1.684-5.5-5.162-9.594-3.478-4.097-8.752-6.396t-12.343-2.3" style="fill:#fff;fill-opacity:1;fill-rule:nonzero;stroke:none" transform="translate(256.657 225.603)"/><path d="M0 0c-74.559 0-135 60.442-135 134.999C-135 209.559-74.559 270 0 270s135-60.441 135-135.001C135 60.442 74.559 0 0 0m0 285c-82.843 0-150-67.157-150-150.001C-150 52.158-82.843-15 0-15s150 67.158 150 149.999C150 217.843 82.844 285 0 285" style="fill:#fff;fill-opacity:1;fill-rule:nonzero;stroke:none" transform="translate(174.999 40)"/></g></svg>