<svg width="56" height="58" viewBox="0 0 56 58" xmlns="http://www.w3.org/2000/svg"><path d="M0 38v-2h19v2h33v9h-1v1h-1v1h-3v2h-1v1h-1v1h-1v1h-6v2h-1v1h-1v1H20v-1h-1v-1h-1v-2h-7v-1h-1v-1H9v-1H8v-2H6v-1H5v-1H4v-7H2v-1H1v-1z" fill="#012647"/><path d="M9 4h37v41H9zM5 35h4v1H5z" fill="#278EED"/><path d="M10 8h27v28H10zm27 10h5v14h-5zm-9 18h5v5h-5z" fill="#3DA2FF"/><path d="M33 36h4v5h-4zm4-4h5v4h-5z" fill="#2E95F4"/><path d="M18 8h10v14H18zm0 14h5v5h-5z" fill="#57AAFF"/><path d="M33 8h4v10h-4zm0 14h4v10h-4zm-5 5h5v9h-5zm-9 5h9v6h-9z" fill="#4BA8FF"/><path d="M9 41h5v4H9zm10 7h4v2h-4zm27-16h2v4h-2zm0-14h3v9h-3zm-4 18h4v9h-4zm-5 5h5v4h-5z" fill="#0D74D3"/><path d="M9 45h10v5H9zm10 5h18v5H19zm18-5h9v5h-9zm9-9h5v9h-5z" fill="#014E96"/><path d="M19 0h18v4H19zM0 18h5v18H0zm5 18h4v9H5z" fill="#0157A9"/><path d="M42 18h4v4h-4z" fill="#3198F7"/><path d="M51 38v-2h5v2h-1v1h-1v1h-2v-2z" fill="#132E2F"/><path d="M19 38h9v3h-9zm4-24h1v2h-1zm1-6h3v2h-3zm0 10v-2h1v1h1v1zm-10-5V8h8v2h-1v1h1v2zm0 9v-9H9v9H5v13h4v1h5v-2h-2v-1h-2v-3h1v-1h3v1h1v1h1v-4h2v-5z" fill="#6EC310"/><path d="M19 45v-4h15v4zM5 22v-4h4v4zm4-9V8h5v5zm10-5V4h9v2h-1v2h-3V7h-2v1z" fill="#57B10F"/><path d="M9 37v-1h5v1h2v2h1v1h2v1h-3v-1h-1v-1h-3v-2z" fill="#58AE01"/><path d="M39 11V8h7v9h-1v-4h-3v-2zm10 7h2v18h-3v-4h-2v-5h3zM37 50v-5H19v3h4v2z" fill="#448001"/><path d="M9 8V4h10v4zv10H5V8zm28 0V4h9v4h5v10h5v18h-5V18h-5V8zM26 51v-1h8v1h-1v3h-1v1h-3v-2h-2v-2zm25-13v-2h-2v1h1v1z" fill="#2A5401"/><path d="M14 22v-9h9v9z" fill="#fff"/></svg>